<mxfile host="app.diagrams.net" modified="2024-06-03T20:04:00.184Z" agent="Mozilla/5.0 (Windows NT 10.0; Win64; x64) AppleWebKit/537.36 (KHTML, like Gecko) Chrome/125.0.0.0 Safari/537.36" version="24.4.10" etag="UMUlJvP_qrHQQy5r5fXY" type="github">
  <diagram name="Page-1" id="RKywEsytAhrUrGhJtfTn">
    <mxGraphModel>
      <root>
        <mxCell id="0" />
        <mxCell id="1" parent="0" />
      </root>
    </mxGraphModel>
  </diagram>
</mxfile>
